<svg width="24" height="24" viewBox="0 0 24 24" fill="none" xmlns="http://www.w3.org/2000/svg">
<path d="M9.49992 10.4999C9.22378 10.7761 8.77607 10.7761 8.49992 10.4999C8.22378 10.2238 8.22378 9.77607 8.49992 9.49993L11.2929 6.70696C11.6834 6.31653 12.3164 6.31653 12.707 6.70696L15.4999 9.49992C15.7761 9.77607 15.7761 10.2238 15.4999 10.4999C15.2238 10.7761 14.7761 10.7761 14.4999 10.4999L11.9999 7.99992L9.49992 10.4999ZM9.49992 16.4999C9.22378 16.7761 8.77607 16.7761 8.49992 16.4999C8.22378 16.2238 8.22378 15.7761 8.49992 15.4999L11.2929 12.707C11.6834 12.3165 12.3164 12.3165 12.707 12.707L15.4999 15.4999C15.7761 15.7761 15.7761 16.2238 15.4999 16.4999C15.2238 16.7761 14.7761 16.7761 14.4999 16.4999L11.9999 13.9999L9.49992 16.4999Z" fill="#41F6D7"/>
</svg>
