<svg width="10" height="9" viewBox="0 0 10 9" fill="none" xmlns="http://www.w3.org/2000/svg">
<path d="M8.27974 4.91383C8.49161 4.78729 8.75634 4.78733 8.96822 4.91383C9.40399 5.17416 9.40392 5.80579 8.96822 6.06618L5.21236 8.31032C4.8965 8.49901 4.50186 8.49901 4.18599 8.31032L0.430135 6.06618C-0.00546213 5.80575 -0.00559874 5.17414 0.430135 4.91383C0.642002 4.78729 0.90673 4.78733 1.11861 4.91383L4.69967 7.05348L8.27974 4.91383ZM8.27974 0.225355C8.49167 0.0987504 8.75629 0.0987504 8.96822 0.225355C9.40376 0.485748 9.40379 1.11636 8.96822 1.37672L5.21236 3.62086C4.8965 3.80956 4.50186 3.80956 4.18599 3.62086L0.430135 1.37672C-0.00530372 1.11634 -0.00526687 0.485765 0.430135 0.225355C0.642063 0.0987504 0.906683 0.0987504 1.11861 0.225355L4.69967 2.36403L8.27974 0.225355Z" fill="#41F6D7"/>
</svg>
