<svg width="8" height="11" viewBox="0 0 8 11" fill="none" xmlns="http://www.w3.org/2000/svg">
<path d="M1.49992 4.49993C1.22378 4.77607 0.776066 4.77607 0.499924 4.49993C0.223782 4.22378 0.223782 3.77607 0.499924 3.49993L3.29289 0.706956C3.6834 0.316532 4.31645 0.316532 4.70695 0.706956L7.49992 3.49992C7.77607 3.77607 7.77607 4.22378 7.49992 4.49992C7.22378 4.77607 6.77607 4.77607 6.49992 4.49992L3.99992 1.99992L1.49992 4.49993ZM1.49992 10.4999C1.22378 10.7761 0.776067 10.7761 0.499925 10.4999C0.223782 10.2238 0.223782 9.77607 0.499925 9.49993L3.29289 6.70696C3.6834 6.31653 4.31645 6.31653 4.70696 6.70696L7.49992 9.49992C7.77607 9.77607 7.77607 10.2238 7.49992 10.4999C7.22378 10.7761 6.77607 10.7761 6.49992 10.4999L3.99992 7.99992L1.49992 10.4999Z" fill="#41F6D7"/>
</svg>
